<svg xmlns="http://www.w3.org/2000/svg" xmlns:xlink="http://www.w3.org/1999/xlink" width="100" zoomAndPan="magnify" viewBox="0 0 75 74.999997" height="100" preserveAspectRatio="xMidYMid meet" version="1.0"><defs><clipPath id="10d1a68226"><path d="M 24 37 L 42 37 L 42 63.246094 L 24 63.246094 Z M 24 37 " clip-rule="nonzero"/></clipPath><clipPath id="88d4d93cad"><path d="M 19.882812 11.496094 L 46 11.496094 L 46 39 L 19.882812 39 Z M 19.882812 11.496094 " clip-rule="nonzero"/></clipPath><clipPath id="e32cc1f635"><path d="M 36 26 L 55.132812 26 L 55.132812 50 L 36 50 Z M 36 26 " clip-rule="nonzero"/></clipPath></defs><g clip-path="url(#10d1a68226)"><path fill="#c69444" d="M 39.621094 37.378906 C 42.285156 42.578125 38.144531 42.632812 33.820312 44.171875 C 29.914062 45.558594 26.714844 50.460938 25.722656 56.296875 C 24.992188 60.589844 24.796875 63.25 24.796875 63.25 C 25.449219 60.753906 26.1875 58.566406 27.070312 56.667969 C 29.0625 52.371094 31.792969 49.542969 35.960938 47.894531 C 45.171875 44.253906 39.621094 37.378906 39.621094 37.378906 " fill-opacity="1" fill-rule="nonzero"/></g><path fill="#7a5cbf" d="M 35.554688 32.804688 C 31.269531 32.5 27.957031 30.699219 24.886719 27.351562 C 23.53125 25.871094 22.222656 24.085938 20.898438 21.996094 C 20.898438 21.996094 21.851562 24.371094 23.765625 28.078125 C 26.371094 33.117188 30.714844 36.675781 34.683594 36.820312 C 39.078125 36.980469 42.875 35.839844 41.953125 41.355469 C 41.953125 41.355469 45.023438 33.480469 35.554688 32.804688 " fill-opacity="1" fill-rule="nonzero"/><g clip-path="url(#88d4d93cad)"><path fill="#8772c0" d="M 37.324219 27.042969 C 31.882812 26.148438 27.855469 23.457031 24.332031 18.816406 C 22.773438 16.761719 21.3125 14.328125 19.871094 11.496094 C 19.871094 11.496094 20.800781 14.644531 22.8125 19.613281 C 25.539062 26.363281 30.671875 31.425781 35.730469 32.078125 C 41.332031 32.796875 46.324219 31.789062 44.488281 38.730469 C 44.488281 38.730469 49.351562 29.023438 37.324219 27.042969 " fill-opacity="1" fill-rule="nonzero"/></g><g clip-path="url(#e32cc1f635)"><path fill="#d6ad60" d="M 46.546875 33.195312 C 47.292969 37.59375 44.816406 41.203125 41.496094 44.59375 C 40.03125 46.09375 38.242188 47.558594 36.132812 49.0625 C 36.132812 49.0625 38.558594 47.925781 42.328125 45.710938 C 47.449219 42.699219 50.910156 37.972656 50.8125 33.847656 C 50.703125 29.28125 49.273438 26.371094 55.109375 26.984375 C 55.109375 26.984375 45.003906 24.058594 46.546875 33.195312 " fill-opacity="1" fill-rule="nonzero"/></g></svg>