<svg xmlns="http://www.w3.org/2000/svg" xmlns:xlink="http://www.w3.org/1999/xlink" width="100" zoomAndPan="magnify" viewBox="0 0 75 74.999997" height="100" preserveAspectRatio="xMidYMid meet" version="1.0"><defs><clipPath id="4859c87d52"><path d="M 24 37 L 42 37 L 42 63.328125 L 24 63.328125 Z M 24 37 " clip-rule="nonzero"/></clipPath><clipPath id="2ebea26c43"><path d="M 19.9375 11.578125 L 46 11.578125 L 46 39 L 19.9375 39 Z M 19.9375 11.578125 " clip-rule="nonzero"/></clipPath><clipPath id="10edc00c71"><path d="M 36 26 L 55.1875 26 L 55.1875 50 L 36 50 Z M 36 26 " clip-rule="nonzero"/></clipPath></defs><g clip-path="url(#4859c87d52)"><path fill="#c69444" d="M 39.675781 37.460938 C 42.34375 42.660156 38.199219 42.71875 33.875 44.253906 C 29.96875 45.640625 26.773438 50.546875 25.777344 56.378906 C 25.046875 60.675781 24.851562 63.335938 24.851562 63.335938 C 25.507812 60.839844 26.242188 58.652344 27.125 56.753906 C 29.117188 52.457031 31.847656 49.625 36.015625 47.976562 C 45.226562 44.335938 39.675781 37.460938 39.675781 37.460938 " fill-opacity="1" fill-rule="nonzero"/></g><path fill="#a6a6a6" d="M 35.609375 32.886719 C 31.328125 32.582031 28.011719 30.78125 24.941406 27.433594 C 23.585938 25.953125 22.277344 24.167969 20.957031 22.078125 C 20.957031 22.078125 21.90625 24.449219 23.824219 28.160156 C 26.425781 33.199219 30.769531 36.757812 34.738281 36.902344 C 39.132812 37.0625 42.933594 35.921875 42.007812 41.4375 C 42.007812 41.4375 45.078125 33.5625 35.609375 32.886719 " fill-opacity="1" fill-rule="nonzero"/><g clip-path="url(#2ebea26c43)"><path fill="#d9d9d9" d="M 37.378906 27.125 C 31.9375 26.230469 27.910156 23.539062 24.386719 18.894531 C 22.828125 16.839844 21.367188 14.40625 19.925781 11.574219 C 19.925781 11.574219 20.859375 14.722656 22.867188 19.695312 C 25.597656 26.445312 30.730469 31.507812 35.789062 32.160156 C 41.386719 32.878906 46.378906 31.867188 44.542969 38.8125 C 44.542969 38.8125 49.40625 29.101562 37.378906 27.125 " fill-opacity="1" fill-rule="nonzero"/></g><g clip-path="url(#10edc00c71)"><path fill="#d6ad60" d="M 46.601562 33.277344 C 47.347656 37.675781 44.871094 41.289062 41.554688 44.675781 C 40.085938 46.175781 38.296875 47.644531 36.1875 49.144531 C 36.1875 49.144531 38.617188 48.011719 42.382812 45.792969 C 47.503906 42.78125 50.964844 38.054688 50.867188 33.929688 C 50.757812 29.363281 49.328125 26.449219 55.167969 27.0625 C 55.167969 27.0625 45.058594 24.140625 46.601562 33.277344 " fill-opacity="1" fill-rule="nonzero"/></g></svg>