<svg xmlns="http://www.w3.org/2000/svg" xmlns:xlink="http://www.w3.org/1999/xlink" width="200" zoomAndPan="magnify" viewBox="0 0 150 149.999998" height="200" preserveAspectRatio="xMidYMid meet" version="1.0"><defs><clipPath id="e4ae62ef8d"><path d="M 44 75 L 85 75 L 85 137.722656 L 44 137.722656 Z M 44 75 " clip-rule="nonzero"/></clipPath><clipPath id="f3a9a5ce0b"><path d="M 32.636719 12.472656 L 95 12.472656 L 95 79 L 32.636719 79 Z M 32.636719 12.472656 " clip-rule="nonzero"/></clipPath><clipPath id="d1f84b5c2b"><path d="M 71 48 L 117.386719 48 L 117.386719 104 L 71 104 Z M 71 48 " clip-rule="nonzero"/></clipPath></defs><g clip-path="url(#e4ae62ef8d)"><path fill="#c69444" d="M 80.089844 75.113281 C 86.503906 87.699219 76.542969 87.835938 66.144531 91.550781 C 56.757812 94.90625 49.070312 106.777344 46.679688 120.894531 C 44.921875 131.289062 44.453125 137.726562 44.453125 137.726562 C 46.023438 131.683594 47.796875 126.394531 49.914062 121.796875 C 54.707031 111.402344 61.273438 104.554688 71.292969 100.566406 C 93.4375 91.757812 80.089844 75.113281 80.089844 75.113281 " fill-opacity="1" fill-rule="nonzero"/></g><path fill="#a6a6a6" d="M 70.316406 64.042969 C 60.019531 63.304688 52.046875 58.949219 44.671875 50.847656 C 41.410156 47.265625 38.261719 42.949219 35.085938 37.886719 C 35.085938 37.886719 37.371094 43.632812 41.976562 52.609375 C 48.234375 64.804688 58.683594 73.417969 68.222656 73.765625 C 78.785156 74.148438 87.921875 71.390625 85.703125 84.738281 C 85.703125 84.738281 93.082031 65.679688 70.316406 64.042969 " fill-opacity="1" fill-rule="nonzero"/><g clip-path="url(#f3a9a5ce0b)"><path fill="#d9d9d9" d="M 74.570312 50.105469 C 61.488281 47.9375 51.808594 41.425781 43.335938 30.191406 C 39.585938 25.222656 36.074219 19.328125 32.609375 12.480469 C 32.609375 12.480469 34.851562 20.09375 39.679688 32.125 C 46.242188 48.460938 58.582031 60.710938 70.742188 62.285156 C 84.207031 64.027344 96.210938 61.585938 91.796875 78.390625 C 91.796875 78.390625 103.484375 54.890625 74.570312 50.105469 " fill-opacity="1" fill-rule="nonzero"/></g><g clip-path="url(#d1f84b5c2b)"><path fill="#d6ad60" d="M 96.746094 64.988281 C 98.535156 75.636719 92.582031 84.375 84.605469 92.574219 C 81.078125 96.203125 76.777344 99.753906 71.707031 103.386719 C 71.707031 103.386719 77.542969 100.644531 86.605469 95.28125 C 98.914062 87.988281 107.230469 76.550781 106.996094 66.570312 C 106.738281 55.523438 103.300781 48.472656 117.335938 49.957031 C 117.335938 49.957031 93.03125 42.882812 96.746094 64.988281 " fill-opacity="1" fill-rule="nonzero"/></g></svg>