<svg xmlns="http://www.w3.org/2000/svg" xmlns:xlink="http://www.w3.org/1999/xlink" width="200" zoomAndPan="magnify" viewBox="0 0 150 149.999998" height="200" preserveAspectRatio="xMidYMid meet" version="1.0"><defs><clipPath id="668ebdadd7"><path d="M 41 74 L 86 74 L 86 144.210938 L 41 144.210938 Z M 41 74 " clip-rule="nonzero"/></clipPath><clipPath id="ce07fbc4fe"><path d="M 27.886719 5.460938 L 97 5.460938 L 97 79 L 27.886719 79 Z M 27.886719 5.460938 " clip-rule="nonzero"/></clipPath><clipPath id="2f4955ee9e"><path d="M 71 45 L 122.386719 45 L 122.386719 107 L 71 107 Z M 71 45 " clip-rule="nonzero"/></clipPath></defs><g clip-path="url(#668ebdadd7)"><path fill="#c69444" d="M 80.796875 74.847656 C 87.949219 88.792969 76.839844 88.945312 65.25 93.058594 C 54.777344 96.777344 46.207031 109.929688 43.542969 125.566406 C 41.582031 137.082031 41.0625 144.214844 41.0625 144.214844 C 42.8125 137.519531 44.789062 131.660156 47.152344 126.566406 C 52.496094 115.050781 59.8125 107.464844 70.984375 103.046875 C 95.679688 93.285156 80.796875 74.847656 80.796875 74.847656 " fill-opacity="1" fill-rule="nonzero"/></g><path fill="#7a5cbf" d="M 69.898438 62.585938 C 58.417969 61.769531 49.527344 56.945312 41.300781 47.96875 C 37.664062 44.003906 34.15625 39.21875 30.613281 33.613281 C 30.613281 33.613281 33.160156 39.976562 38.296875 49.921875 C 45.273438 63.433594 56.925781 72.972656 67.566406 73.355469 C 79.34375 73.78125 89.527344 70.726562 87.054688 85.515625 C 87.054688 85.515625 95.28125 64.398438 69.898438 62.585938 " fill-opacity="1" fill-rule="nonzero"/><g clip-path="url(#ce07fbc4fe)"><path fill="#8772c0" d="M 74.640625 47.144531 C 60.054688 44.746094 49.261719 37.53125 39.8125 25.085938 C 35.632812 19.578125 31.71875 13.050781 27.851562 5.464844 C 27.851562 5.464844 30.351562 13.902344 35.738281 27.226562 C 43.054688 45.324219 56.816406 58.894531 70.375 60.640625 C 85.386719 62.570312 98.773438 59.863281 93.851562 78.480469 C 93.851562 78.480469 106.882812 52.449219 74.640625 47.144531 " fill-opacity="1" fill-rule="nonzero"/></g><g clip-path="url(#2f4955ee9e)"><path fill="#d6ad60" d="M 99.371094 63.636719 C 101.367188 75.429688 94.726562 85.109375 85.832031 94.195312 C 81.898438 98.214844 77.105469 102.148438 71.449219 106.171875 C 71.449219 106.171875 77.957031 103.132812 88.0625 97.191406 C 101.785156 89.113281 111.0625 76.441406 110.800781 65.386719 C 110.511719 53.148438 106.675781 45.339844 122.328125 46.980469 C 122.328125 46.980469 95.226562 39.144531 99.371094 63.636719 " fill-opacity="1" fill-rule="nonzero"/></g></svg>